<svg xmlns="http://www.w3.org/2000/svg" width="64" height="64" viewBox="0 0 64 64">
  <path fill="#090909" fill-rule="evenodd" d="M129.712964,99.5 C128.02399,97.0097805 129.673444,95.9038059 131.170107,95.366667 C132.66677,94.8295281 137.302321,94.989226 140.478407,95.1779465 C143.654492,95.366667 144.599534,96.56857 143.645822,99.1056525 C142.692111,101.642735 138.767758,104.362641 136.104528,103.960155 C133.441298,103.557669 131.401938,101.99022 129.712964,99.5 Z M164.5263,78.9814875 C166.092477,86.6281019 163.071915,92.5402994 155.613071,91.9179831 C148.154227,91.2956667 141.041904,81.858792 139.388018,76.9905181 C137.734132,72.1222443 141.437313,65.4386159 149.160721,66.0376087 C156.88413,66.6366014 162.960122,71.3348732 164.5263,78.9814875 Z M148.804825,82.1832129 C151.172982,82.1832129 153.092752,80.2958835 153.092752,77.9677447 C153.092752,75.6396059 151.172982,73.7522765 148.804825,73.7522765 C146.436668,73.7522765 144.516898,75.6396059 144.516898,77.9677447 C144.516898,80.2958835 146.436668,82.1832129 148.804825,82.1832129 Z M148.804825,80.0754788 C147.620747,80.0754788 146.660862,79.1318141 146.660862,77.9677447 C146.660862,76.8036753 147.620747,75.8600106 148.804825,75.8600106 C149.988903,75.8600106 150.948788,76.8036753 150.948788,77.9677447 C150.948788,79.1318141 149.988903,80.0754788 148.804825,80.0754788 Z M107.401829,78.9814875 C108.968007,71.3348732 115.043999,66.6366014 122.767408,66.0376087 C130.490816,65.4386159 134.193997,72.1222443 132.540111,76.9905181 C130.886225,81.858792 123.773902,91.2956667 116.315058,91.9179831 C108.856214,92.5402994 105.835652,86.6281019 107.401829,78.9814875 Z M123.123304,82.1832129 C125.491461,82.1832129 127.411231,80.2958835 127.411231,77.9677447 C127.411231,75.6396059 125.491461,73.7522765 123.123304,73.7522765 C120.755147,73.7522765 118.835377,75.6396059 118.835377,77.9677447 C118.835377,80.2958835 120.755147,82.1832129 123.123304,82.1832129 Z M123.123304,80.5689213 C121.662021,80.5689213 120.477416,79.4043349 120.477416,77.9677447 C120.477416,76.5311545 121.662021,75.3665681 123.123304,75.3665681 C124.584587,75.3665681 125.769192,76.5311545 125.769192,77.9677447 C125.769192,79.4043349 124.584587,80.5689213 123.123304,80.5689213 Z" transform="translate(-104 -53)"/>
</svg>
